<svg width="792" height="124" viewBox="0 0 792 124" fill="none" xmlns="http://www.w3.org/2000/svg">
  <defs>
    <linearGradient id="spacecode-grad" x1="0" y1="9" x2="0" y2="104" gradientUnits="userSpaceOnUse">
      <stop offset="0%" stop-color="#FFFFFF"/>
      <stop offset="19.99%" stop-color="#FFFFFF"/>
      <stop offset="20%" stop-color="#F6F5F7"/>
      <stop offset="39.99%" stop-color="#F6F5F7"/>
      <stop offset="40%" stop-color="#E4E3E8"/>
      <stop offset="59.99%" stop-color="#E4E3E8"/>
      <stop offset="60%" stop-color="#D5D5D7"/>
      <stop offset="79.99%" stop-color="#D5D5D7"/>
      <stop offset="80%" stop-color="#FFFFFF"/>
      <stop offset="100%" stop-color="#FFFFFF"/>
    </linearGradient>
  </defs>
  <g fill="url(#spacecode-grad)">
    <rect x="31" y="9" width="54" height="7"/>
    <rect x="103" y="9" width="54" height="7"/>
    <rect x="193" y="9" width="54" height="7"/>
    <rect x="274" y="9" width="54" height="7"/>
    <rect x="346" y="9" width="63" height="7"/>
    <rect x="436" y="9" width="54" height="7"/>
    <rect x="517" y="9" width="54" height="7"/>
    <rect x="589" y="9" width="54" height="7"/>
    <rect x="670" y="9" width="63" height="7"/>
    <rect x="31" y="16" width="62" height="2"/>
    <rect x="103" y="16" width="62" height="2"/>
    <rect x="193" y="16" width="62" height="2"/>
    <rect x="274" y="16" width="62" height="2"/>
    <rect x="346" y="16" width="71" height="2"/>
    <rect x="436" y="16" width="62" height="2"/>
    <rect x="517" y="16" width="62" height="2"/>
    <rect x="589" y="16" width="62" height="2"/>
    <rect x="670" y="16" width="71" height="2"/>
    <rect x="31" y="18" width="54" height="2"/>
    <rect x="103" y="18" width="54" height="2"/>
    <rect x="193" y="18" width="54" height="2"/>
    <rect x="274" y="18" width="54" height="2"/>
    <rect x="346" y="18" width="63" height="2"/>
    <rect x="436" y="18" width="54" height="2"/>
    <rect x="517" y="18" width="54" height="2"/>
    <rect x="589" y="18" width="54" height="2"/>
    <rect x="670" y="18" width="63" height="2"/>
    <rect x="31" y="20" width="58" height="2"/>
    <rect x="103" y="20" width="58" height="2"/>
    <rect x="193" y="20" width="58" height="2"/>
    <rect x="274" y="20" width="58" height="2"/>
    <rect x="346" y="20" width="67" height="2"/>
    <rect x="436" y="20" width="58" height="2"/>
    <rect x="517" y="20" width="58" height="2"/>
    <rect x="589" y="20" width="58" height="2"/>
    <rect x="670" y="20" width="67" height="2"/>
    <rect x="163" y="18" width="2" height="10"/>
    <rect x="649" y="18" width="2" height="10"/>
    <rect x="31" y="22" width="54" height="6"/>
    <rect x="103" y="22" width="54" height="6"/>
    <rect x="159" y="22" width="2" height="6"/>
    <rect x="193" y="22" width="54" height="6"/>
    <rect x="274" y="22" width="54" height="6"/>
    <rect x="346" y="22" width="63" height="6"/>
    <rect x="436" y="22" width="54" height="6"/>
    <rect x="517" y="22" width="54" height="6"/>
    <rect x="589" y="22" width="54" height="6"/>
    <rect x="645" y="22" width="2" height="6"/>
    <rect x="670" y="22" width="63" height="6"/>
    <rect x="87" y="22" width="2" height="13"/>
    <rect x="330" y="22" width="2" height="13"/>
    <rect x="411" y="22" width="2" height="13"/>
    <rect x="492" y="22" width="2" height="13"/>
    <rect x="735" y="22" width="2" height="13"/>
    <rect x="148" y="28" width="18" height="7"/>
    <rect x="229" y="28" width="18" height="7"/>
    <rect x="553" y="28" width="18" height="7"/>
    <rect x="634" y="28" width="18" height="7"/>
    <rect x="42" y="35" width="47" height="2"/>
    <rect x="123" y="35" width="43" height="2"/>
    <rect x="204" y="35" width="43" height="2"/>
    <rect x="285" y="35" width="47" height="2"/>
    <rect x="366" y="35" width="47" height="2"/>
    <rect x="447" y="35" width="47" height="2"/>
    <rect x="528" y="35" width="43" height="2"/>
    <rect x="609" y="35" width="43" height="2"/>
    <rect x="690" y="35" width="47" height="2"/>
    <rect x="91" y="18" width="2" height="21"/>
    <rect x="334" y="18" width="2" height="21"/>
    <rect x="415" y="18" width="2" height="21"/>
    <rect x="496" y="18" width="2" height="21"/>
    <rect x="739" y="18" width="2" height="21"/>
    <rect x="148" y="37" width="18" height="2"/>
    <rect x="229" y="37" width="18" height="2"/>
    <rect x="553" y="37" width="18" height="2"/>
    <rect x="634" y="37" width="18" height="2"/>
    <rect x="46" y="39" width="47" height="2"/>
    <rect x="127" y="39" width="39" height="2"/>
    <rect x="208" y="39" width="39" height="2"/>
    <rect x="289" y="39" width="47" height="2"/>
    <rect x="370" y="39" width="47" height="2"/>
    <rect x="451" y="39" width="47" height="2"/>
    <rect x="532" y="39" width="39" height="2"/>
    <rect x="613" y="39" width="39" height="2"/>
    <rect x="694" y="39" width="47" height="2"/>
    <rect x="22" y="28" width="18" height="19"/>
    <rect x="103" y="28" width="18" height="19"/>
    <rect x="184" y="28" width="18" height="19"/>
    <rect x="346" y="28" width="18" height="19"/>
    <rect x="670" y="28" width="18" height="19"/>
    <rect x="42" y="37" width="2" height="10"/>
    <rect x="123" y="37" width="2" height="10"/>
    <rect x="204" y="37" width="2" height="10"/>
    <rect x="366" y="37" width="2" height="10"/>
    <rect x="690" y="37" width="2" height="10"/>
    <rect x="46" y="41" width="2" height="6"/>
    <rect x="127" y="41" width="2" height="6"/>
    <rect x="148" y="41" width="18" height="6"/>
    <rect x="208" y="41" width="2" height="6"/>
    <rect x="229" y="41" width="18" height="6"/>
    <rect x="370" y="41" width="2" height="6"/>
    <rect x="694" y="41" width="2" height="6"/>
    <rect x="168" y="28" width="2" height="26"/>
    <rect x="28" y="47" width="2" height="7"/>
    <rect x="31" y="47" width="45" height="7"/>
    <rect x="346" y="47" width="45" height="7"/>
    <rect x="670" y="47" width="45" height="7"/>
    <rect x="28" y="54" width="56" height="2"/>
    <rect x="159" y="54" width="11" height="2"/>
    <rect x="346" y="54" width="53" height="2"/>
    <rect x="670" y="54" width="53" height="2"/>
    <rect x="172" y="28" width="2" height="30"/>
    <rect x="24" y="47" width="2" height="11"/>
    <rect x="31" y="56" width="45" height="2"/>
    <rect x="346" y="56" width="45" height="2"/>
    <rect x="670" y="56" width="45" height="2"/>
    <rect x="24" y="58" width="56" height="2"/>
    <rect x="163" y="58" width="11" height="2"/>
    <rect x="346" y="58" width="49" height="2"/>
    <rect x="670" y="58" width="49" height="2"/>
    <rect x="103" y="47" width="54" height="19"/>
    <rect x="184" y="47" width="63" height="19"/>
    <rect x="82" y="56" width="2" height="10"/>
    <rect x="31" y="60" width="45" height="6"/>
    <rect x="78" y="60" width="2" height="6"/>
    <rect x="346" y="60" width="45" height="6"/>
    <rect x="670" y="60" width="45" height="6"/>
    <rect x="159" y="56" width="2" height="17"/>
    <rect x="393" y="60" width="2" height="13"/>
    <rect x="717" y="60" width="2" height="13"/>
    <rect x="37" y="66" width="2" height="7"/>
    <rect x="67" y="66" width="18" height="7"/>
    <rect x="229" y="66" width="18" height="7"/>
    <rect x="37" y="73" width="56" height="2"/>
    <rect x="123" y="73" width="38" height="2"/>
    <rect x="204" y="73" width="43" height="2"/>
    <rect x="366" y="73" width="29" height="2"/>
    <rect x="690" y="73" width="29" height="2"/>
    <rect x="397" y="56" width="2" height="21"/>
    <rect x="721" y="56" width="2" height="21"/>
    <rect x="163" y="60" width="2" height="17"/>
    <rect x="33" y="66" width="2" height="11"/>
    <rect x="67" y="75" width="18" height="2"/>
    <rect x="229" y="75" width="18" height="2"/>
    <rect x="33" y="77" width="56" height="2"/>
    <rect x="127" y="77" width="38" height="2"/>
    <rect x="208" y="77" width="39" height="2"/>
    <rect x="370" y="77" width="29" height="2"/>
    <rect x="694" y="77" width="29" height="2"/>
    <rect x="265" y="28" width="18" height="57"/>
    <rect x="427" y="28" width="18" height="57"/>
    <rect x="508" y="28" width="18" height="57"/>
    <rect x="589" y="28" width="18" height="57"/>
    <rect x="285" y="37" width="2" height="48"/>
    <rect x="447" y="37" width="2" height="48"/>
    <rect x="528" y="37" width="2" height="48"/>
    <rect x="609" y="37" width="2" height="48"/>
    <rect x="289" y="41" width="2" height="44"/>
    <rect x="451" y="41" width="2" height="44"/>
    <rect x="532" y="41" width="2" height="44"/>
    <rect x="553" y="41" width="18" height="44"/>
    <rect x="613" y="41" width="2" height="44"/>
    <rect x="634" y="41" width="18" height="44"/>
    <rect x="346" y="66" width="18" height="19"/>
    <rect x="670" y="66" width="18" height="19"/>
    <rect x="366" y="75" width="2" height="10"/>
    <rect x="690" y="75" width="2" height="10"/>
    <rect x="67" y="79" width="18" height="6"/>
    <rect x="370" y="79" width="2" height="6"/>
    <rect x="694" y="79" width="2" height="6"/>
    <rect x="573" y="22" width="2" height="70"/>
    <rect x="654" y="28" width="2" height="64"/>
    <rect x="87" y="79" width="2" height="13"/>
    <rect x="271" y="85" width="2" height="7"/>
    <rect x="274" y="85" width="54" height="7"/>
    <rect x="346" y="85" width="63" height="7"/>
    <rect x="433" y="85" width="2" height="7"/>
    <rect x="436" y="85" width="54" height="7"/>
    <rect x="514" y="85" width="2" height="7"/>
    <rect x="517" y="85" width="54" height="7"/>
    <rect x="670" y="85" width="63" height="7"/>
    <rect x="78" y="92" width="11" height="2"/>
    <rect x="271" y="92" width="65" height="2"/>
    <rect x="346" y="92" width="71" height="2"/>
    <rect x="433" y="92" width="65" height="2"/>
    <rect x="514" y="92" width="61" height="2"/>
    <rect x="645" y="92" width="11" height="2"/>
    <rect x="670" y="92" width="71" height="2"/>
    <rect x="577" y="18" width="2" height="78"/>
    <rect x="658" y="28" width="2" height="68"/>
    <rect x="91" y="75" width="2" height="21"/>
    <rect x="267" y="85" width="2" height="11"/>
    <rect x="429" y="85" width="2" height="11"/>
    <rect x="510" y="85" width="2" height="11"/>
    <rect x="274" y="94" width="54" height="2"/>
    <rect x="346" y="94" width="63" height="2"/>
    <rect x="436" y="94" width="54" height="2"/>
    <rect x="517" y="94" width="54" height="2"/>
    <rect x="670" y="94" width="63" height="2"/>
    <rect x="82" y="96" width="11" height="2"/>
    <rect x="267" y="96" width="65" height="2"/>
    <rect x="346" y="96" width="67" height="2"/>
    <rect x="429" y="96" width="65" height="2"/>
    <rect x="510" y="96" width="69" height="2"/>
    <rect x="649" y="96" width="11" height="2"/>
    <rect x="670" y="96" width="67" height="2"/>
    <rect x="253" y="18" width="2" height="86"/>
    <rect x="249" y="22" width="2" height="82"/>
    <rect x="103" y="66" width="18" height="38"/>
    <rect x="184" y="66" width="18" height="38"/>
    <rect x="123" y="75" width="2" height="29"/>
    <rect x="204" y="75" width="2" height="29"/>
    <rect x="127" y="79" width="2" height="25"/>
    <rect x="208" y="79" width="2" height="25"/>
    <rect x="229" y="79" width="18" height="25"/>
    <rect x="22" y="85" width="54" height="19"/>
    <rect x="589" y="85" width="54" height="19"/>
    <rect x="78" y="94" width="2" height="10"/>
    <rect x="334" y="94" width="2" height="10"/>
    <rect x="415" y="94" width="2" height="10"/>
    <rect x="496" y="94" width="2" height="10"/>
    <rect x="645" y="94" width="2" height="10"/>
    <rect x="739" y="94" width="2" height="10"/>
    <rect x="82" y="98" width="2" height="6"/>
    <rect x="274" y="98" width="54" height="6"/>
    <rect x="330" y="98" width="2" height="6"/>
    <rect x="346" y="98" width="63" height="6"/>
    <rect x="411" y="98" width="2" height="6"/>
    <rect x="436" y="98" width="54" height="6"/>
    <rect x="492" y="98" width="2" height="6"/>
    <rect x="517" y="98" width="54" height="6"/>
    <rect x="649" y="98" width="2" height="6"/>
    <rect x="670" y="98" width="63" height="6"/>
    <rect x="735" y="98" width="2" height="6"/>
  </g>
</svg>
